<?xml version="1.0" encoding="utf-8"?>
<!-- Generator: Adobe Illustrator 21.1.0, SVG Export Plug-In . SVG Version: 6.00 Build 0)  -->
<svg version="1.1" id="Layer_1" xmlns="http://www.w3.org/2000/svg" xmlns:xlink="http://www.w3.org/1999/xlink" x="0px" y="0px"
	 viewBox="0 0 469.3 117.3" style="enable-background:new 0 0 469.3 117.3;" xml:space="preserve">
<style type="text/css">
	.Drop_x0020_Shadow{fill:none;}
	.Outer_x0020_Glow_x0020_5_x0020_pt{fill:none;}
	.Jive_GS{fill:#A6D0E4;}
	.st0{fill:#FFFFFF;}
</style>
<path class="st0" d="M456.7,59.7c0-9.2-1.8-17.3-5.3-24.3c-3.5-7-8.6-12.3-15.2-16.1c-6.6-3.7-14.3-5.6-23.1-5.6H353l-21.6,53.5
	l-20.9-53.5h-62.7v50.1c0,5.4-1.4,9.7-4.3,13c-2.9,3.3-6.6,4.9-11.3,4.9c-7.9,0-11.9-4.5-11.9-13.5V13.7h-33.1v8.5
	c-4.5-2.4-9.2-4.3-14.3-5.7c-6.5-1.9-13.1-2.8-19.8-2.8H90.4l-17,22.3L56.2,13.7H17.4l37.4,45l-39.7,48h38.6l19.8-24.9l19.8,24.9
	h59.1c12.8,0,22.9-2.5,30.1-7.6c4-2.7,6.9-6.1,8.7-10c1.3,3,2.9,5.6,4.9,7.8c5.8,6.5,14.6,9.7,26.5,9.7c11.7,0,20.6-4.6,26.5-13.7
	v13.7h32.4V25.7l35.6,81h27.3L366.8,56c-0.1,1.4-0.2,2.9-0.2,4.4c0,9.5,2.1,17.7,6.2,24.7c4.2,7,10.1,12.3,17.9,16.1
	c7.8,3.7,17,5.6,27.6,5.6c6.6,0,13.2-1,19.8-2.8c6.6-1.9,12.2-4.4,16.8-7.7l-8.4-21.1c-3.8,2.6-8,4.6-12.6,6.1
	c-4.6,1.5-9.3,2.2-13.9,2.2c-6.8,0-12-1.5-15.6-4.6c-3.5-3.1-5.6-8-6.2-14.9h58.4V59.7z M161.3,83.2c-2.1,1.1-5,1.6-8.8,1.6
	c-6.1,0-12.3-0.9-18.7-2.7c-6.3-1.8-12-4.4-17-7.6l-3.7,9.5L92.3,58.8L113.7,33c-1.5,3.1-2.2,6.6-2.2,10.3c0,7.1,2.1,12.7,6.3,16.8
	c4.2,4,11.1,7,20.6,8.9l15,3.3c4.3,0.8,7.2,1.7,8.7,2.7c1.5,1,2.3,2.3,2.3,4C164.4,80.7,163.4,82.2,161.3,83.2z M187.3,61.5
	c-0.1-0.2-0.3-0.3-0.4-0.5c-4.3-4.3-11.4-7.5-21.3-9.7L149.9,48c-3.4-0.8-5.7-1.6-7-2.4c-1.2-0.8-1.8-1.8-1.8-3.1
	c0-2.1,1-3.7,3.1-4.8c2.1-1.1,4.9-1.7,8.6-1.7c4.5,0,9.3,0.8,14.5,2.5c5.1,1.6,10.1,4,15,7l4.9-11.8V61.5z M398.7,49.2
	c2.1-9.1,7.2-13.7,15.4-13.7c8.3,0,13.1,4.6,14.3,13.7H398.7z"/>
</svg>
