<?xml version="1.0" encoding="utf-8"?>
<!-- Generator: Adobe Illustrator 21.1.0, SVG Export Plug-In . SVG Version: 6.00 Build 0)  -->
<svg version="1.1" id="Layer_1" xmlns="http://www.w3.org/2000/svg" xmlns:xlink="http://www.w3.org/1999/xlink" x="0px" y="0px"
	 viewBox="0 0 179.1 93" style="enable-background:new 0 0 179.1 93;" xml:space="preserve">
<style type="text/css">
	.Drop_x0020_Shadow{fill:none;}
	.Outer_x0020_Glow_x0020_5_x0020_pt{fill:none;}
	.Jive_GS{fill:#A6D0E4;}
	.st0{fill:none;}
	.st1{fill:#0F2137;}
</style>
<path class="st0" d="M268.9,23.3c-8.2,0-13.3,4.6-15.4,13.7h29.7C282,27.9,277.2,23.3,268.9,23.3z"/>
<path class="st1" d="M172.5,47.3c-4.4-4.3-11.6-7.5-21.6-9.7l-15.7-3.3c-3.5-0.8-5.8-1.6-7-2.4c-1.2-0.8-1.9-1.8-1.9-3.1
	c0-2.1,1.1-3.7,3.2-4.8c2.1-1.1,5-1.7,8.7-1.7h0c4.6,0,9.4,0.8,14.6,2.5c5,1.6,9.9,3.8,14.7,6.7c0.2,0.1,0.4,0.2,0.5,0.3l8.9-21.1
	c-5.7-3.4-11.8-6-18.3-7.9C152,0.9,145.3,0,138.5,0c-0.1,0-0.1,0-0.2,0c-0.1,0-0.1,0-0.2,0H75.4l-17,22.3L41.2,0H2.4l37.3,45L0,93
	h38.6l19.8-24.9L78.2,93h59.1c0.1,0,0.1,0,0.2,0s0.1,0,0.2,0c13,0,23.1-2.5,30.5-7.6c7.3-5,11-11.9,11-20.7
	C179.1,57.4,176.9,51.6,172.5,47.3z M118.9,68.4c-2.8-0.8-5.4-1.7-7.9-2.8c-0.4-0.2-0.8-0.3-1.2-0.5c-2.8-1.3-5.5-2.7-8-4.3
	c0,0,0,0-0.1,0L98,70.1L77.3,45l21.1-25.5c-1.4,3.1-2.1,6.4-2.1,9.9c0,7.1,2.1,12.7,6.4,16.8c2,1.8,4.5,3.5,7.5,4.8
	c0.6,0.3,1.2,0.6,1.9,0.8c0.8,0.3,1.7,0.6,2.5,0.9c0.3,0.1,0.7,0.2,1,0.3c2.3,0.8,4.9,1.4,7.7,1.9l15,3.3c4.3,0.8,7.2,1.7,8.7,2.7
	c1.5,1,2.3,2.3,2.3,4c0,1.9-1,3.3-3.1,4.4c-2.1,1.1-5,1.6-8.8,1.6c-1.4,0-2.9,0-4.4-0.2C128.5,70.6,123.7,69.7,118.9,68.4z"/>
</svg>
